<svg width="277" height="73" viewBox="0 0 277 73" fill="none" xmlns="http://www.w3.org/2000/svg">
<path d="M93.3668 4.11328C95.4212 4.11328 97.1021 4.42457 98.4095 5.0471C99.7476 5.63854 100.931 6.33891 101.958 7.14821C102.58 7.61512 103.047 7.67736 103.359 7.33497C103.701 6.96144 103.934 6.10545 104.059 4.76696H105.133C105.07 5.94979 105.024 7.39721 104.993 9.10924C104.962 10.8213 104.946 13.078 104.946 15.8795H103.872C103.686 14.4787 103.483 13.3114 103.265 12.3776C103.047 11.4127 102.736 10.5878 102.332 9.90299C101.958 9.21817 101.429 8.56449 100.744 7.94196C99.9036 7.00813 98.8918 6.32332 97.7091 5.88755C96.5572 5.42063 95.3433 5.18718 94.0672 5.18718C92.4484 5.18718 91.0323 5.62295 89.8183 6.49453C88.6351 7.33497 87.6392 8.50225 86.8301 9.99637C86.0517 11.4593 85.4601 13.1714 85.0558 15.1324C84.6823 17.0934 84.4955 19.179 84.4955 21.389C84.4955 23.6613 84.6977 25.778 85.1025 27.739C85.5381 29.6689 86.1605 31.3654 86.9701 32.8284C87.8106 34.2602 88.8378 35.3808 90.0518 36.1901C91.2965 36.9994 92.7286 37.4041 94.3473 37.4041C95.4987 37.4041 96.6819 37.1862 97.8959 36.7504C99.1098 36.3146 100.106 35.6454 100.884 34.7427C101.911 33.8089 102.612 32.7038 102.985 31.4276C103.359 30.1203 103.654 28.3927 103.872 26.2449H104.946C104.946 29.1709 104.962 31.5366 104.993 33.342C105.024 35.1162 105.07 36.6103 105.133 37.8243H104.059C103.934 36.4858 103.716 35.6454 103.405 35.303C103.125 34.9606 102.642 35.0073 101.958 35.4431C100.806 36.2524 99.5767 36.9683 98.2694 37.5909C96.9929 38.1823 95.3433 38.478 93.3201 38.478C90.1451 38.478 87.3591 37.8088 84.9624 36.4703C82.5653 35.1318 80.6976 33.2019 79.3595 30.6806C78.0521 28.1592 77.3984 25.1243 77.3984 21.5758C77.3984 18.0895 78.0829 15.039 79.4529 12.4243C80.8223 9.8096 82.7054 7.77074 85.1025 6.30777C87.4991 4.84479 90.2539 4.11328 93.3668 4.11328ZM124.425 4.62688L135.771 33.9023C136.238 35.0228 136.736 35.801 137.265 36.2368C137.826 36.6415 138.339 36.8593 138.806 36.8905V37.8243C137.997 37.7621 137.017 37.7309 135.865 37.7309C134.744 37.6998 133.593 37.6842 132.41 37.6842C131.04 37.6842 129.764 37.6998 128.581 37.7309C127.398 37.7309 126.433 37.7621 125.686 37.8243V36.8905C127.273 36.8282 128.285 36.5637 128.721 36.0967C129.157 35.5987 129.064 34.5559 128.441 32.9684L120.223 10.7901L121.064 9.76291L113.593 29.1398C113.002 30.6961 112.644 31.9724 112.519 32.9684C112.395 33.9645 112.472 34.7427 112.753 35.303C113.033 35.8633 113.5 36.268 114.153 36.517C114.807 36.7349 115.617 36.8593 116.581 36.8905V37.8243C115.585 37.7621 114.62 37.7309 113.686 37.7309C112.753 37.6998 111.819 37.6842 110.885 37.6842C110.2 37.6842 109.547 37.6998 108.924 37.7309C108.333 37.7309 107.803 37.7621 107.336 37.8243V36.8905C108.021 36.7349 108.69 36.3302 109.344 35.6765C110.029 35.0228 110.683 33.8867 111.305 32.2681L121.997 4.62688C122.371 4.65803 122.776 4.67358 123.211 4.67358C123.647 4.67358 124.052 4.65803 124.425 4.62688ZM128.487 24.3773V25.3111H114.573L115.04 24.3773H128.487ZM139.308 4.76696C140.086 4.7981 141.082 4.8292 142.296 4.86034C143.51 4.89148 144.724 4.90703 145.938 4.90703C147.463 4.90703 148.911 4.89148 150.28 4.86034C151.65 4.8292 152.615 4.81365 153.175 4.81365C156.848 4.81365 159.588 5.49847 161.393 6.86806C163.229 8.23765 164.147 9.99637 164.147 12.1442C164.147 13.2336 163.852 14.3231 163.26 15.4125C162.7 16.502 161.782 17.4825 160.505 18.3541C159.261 19.2257 157.626 19.8794 155.603 20.3151V20.4085C158.342 20.6575 160.505 21.2178 162.093 22.0894C163.712 22.9298 164.864 23.9415 165.548 25.1243C166.233 26.276 166.575 27.49 166.575 28.7662C166.575 30.665 166.078 32.2992 165.081 33.6688C164.117 35.0073 162.716 36.0345 160.879 36.7504C159.043 37.4663 156.833 37.8243 154.249 37.8243C153.564 37.8243 152.521 37.8088 151.121 37.7776C149.72 37.7154 148.024 37.6842 146.031 37.6842C144.755 37.6842 143.51 37.6998 142.296 37.7309C141.082 37.7309 140.086 37.7621 139.308 37.8243V36.8905C140.335 36.8282 141.098 36.7037 141.596 36.517C142.125 36.3302 142.467 35.9567 142.623 35.3964C142.81 34.8361 142.903 33.9956 142.903 32.875V9.71622C142.903 8.56449 142.81 7.72405 142.623 7.1949C142.467 6.63461 142.125 6.26108 141.596 6.07431C141.098 5.8564 140.335 5.73193 139.308 5.70078V4.76696ZM152.381 5.70078C151.105 5.70078 150.265 5.96538 149.86 6.49453C149.486 7.02368 149.3 8.09758 149.3 9.71622V32.875C149.3 33.9645 149.393 34.7894 149.58 35.3497C149.767 35.91 150.093 36.2835 150.56 36.4703C151.027 36.657 151.712 36.7504 152.615 36.7504C155.167 36.7504 157.004 36.05 158.124 34.6493C159.276 33.2174 159.852 31.1942 159.852 28.5795C159.852 26.1827 159.229 24.3306 157.984 23.0232C156.77 21.7159 154.747 21.0622 151.914 21.0622H147.665C147.665 21.0622 147.665 20.9377 147.665 20.6887C147.665 20.4085 147.665 20.2684 147.665 20.2684H151.681C153.268 20.2684 154.498 19.926 155.369 19.2412C156.241 18.5253 156.833 17.5915 157.144 16.4398C157.455 15.2569 157.611 13.9963 157.611 12.6578C157.611 10.3544 157.206 8.62678 156.397 7.47505C155.587 6.29222 154.249 5.70078 152.381 5.70078ZM183.308 4.76696V5.70078C182.312 5.73193 181.549 5.8564 181.02 6.07431C180.522 6.26108 180.18 6.63461 179.993 7.1949C179.806 7.72405 179.713 8.56449 179.713 9.71622V32.875C179.713 33.9956 179.806 34.8361 179.993 35.3964C180.18 35.9567 180.522 36.3302 181.02 36.517C181.549 36.7037 182.312 36.8282 183.308 36.8905V37.8243C182.53 37.7621 181.534 37.7309 180.32 37.7309C179.106 37.6998 177.876 37.6842 176.631 37.6842C175.23 37.6842 173.923 37.6998 172.709 37.7309C171.495 37.7309 170.499 37.7621 169.721 37.8243V36.8905C170.748 36.8282 171.511 36.7037 172.009 36.517C172.538 36.3302 172.881 35.9567 173.036 35.3964C173.223 34.8361 173.316 33.9956 173.316 32.875V9.71622C173.316 8.56449 173.223 7.72405 173.036 7.1949C172.881 6.63461 172.538 6.26108 172.009 6.07431C171.511 5.8564 170.748 5.73193 169.721 5.70078V4.76696C170.499 4.7981 171.495 4.8292 172.709 4.86034C173.923 4.89148 175.23 4.90703 176.631 4.90703C177.876 4.90703 179.106 4.89148 180.32 4.86034C181.534 4.8292 182.53 4.7981 183.308 4.76696ZM217.031 4.76696V5.70078C216.035 5.79416 215.272 6.02762 214.743 6.40115C214.214 6.74354 213.856 7.30383 213.669 8.08203C213.514 8.82909 213.436 9.90299 213.436 11.3037V37.9644C213.156 37.9332 212.844 37.9177 212.502 37.9177C212.191 37.9177 211.848 37.9332 211.475 37.9644L191.444 10.7434V30.914C191.444 32.4081 191.538 33.5754 191.725 34.4159C191.911 35.2252 192.316 35.8166 192.939 36.1901C193.592 36.5325 194.573 36.766 195.88 36.8905V37.8243C195.289 37.7621 194.526 37.7309 193.592 37.7309C192.658 37.6998 191.771 37.6842 190.931 37.6842C190.184 37.6842 189.421 37.6998 188.643 37.7309C187.896 37.7309 187.274 37.7621 186.775 37.8243V36.8905C187.803 36.766 188.565 36.5325 189.063 36.1901C189.592 35.8477 189.935 35.2874 190.09 34.5092C190.277 33.731 190.371 32.6571 190.371 31.2875V9.71622C190.371 8.56449 190.277 7.72405 190.09 7.1949C189.935 6.63461 189.592 6.26108 189.063 6.07431C188.565 5.8564 187.803 5.73193 186.775 5.70078V4.76696C187.274 4.7981 187.896 4.8292 188.643 4.86034C189.421 4.89148 190.184 4.90703 190.931 4.90703C191.647 4.90703 192.347 4.89148 193.032 4.86034C193.717 4.8292 194.324 4.7981 194.853 4.76696L212.362 28.0659V11.6773C212.362 10.152 212.269 8.98471 212.082 8.17541C211.895 7.36612 211.49 6.77468 210.868 6.40115C210.246 6.02762 209.265 5.79416 207.926 5.70078V4.76696C208.518 4.7981 209.28 4.8292 210.214 4.86034C211.179 4.89148 212.067 4.90703 212.876 4.90703C213.654 4.90703 214.417 4.89148 215.164 4.86034C215.942 4.8292 216.564 4.7981 217.031 4.76696ZM244.571 4.76696C244.446 6.04317 244.353 7.28828 244.29 8.50225C244.259 9.68508 244.244 10.5878 244.244 11.2103C244.244 11.8018 244.259 12.3776 244.29 12.9379C244.322 13.4671 244.353 13.9184 244.384 14.292H243.31C243.061 12.1442 242.656 10.4633 242.096 9.24931C241.536 8.0042 240.773 7.13266 239.808 6.63461C238.874 6.10545 237.645 5.84086 236.12 5.84086H233.551C232.618 5.84086 231.902 5.91869 231.404 6.07431C230.906 6.22993 230.563 6.55677 230.376 7.05483C230.221 7.55288 230.143 8.31549 230.143 9.34269V33.2486C230.143 34.2446 230.221 35.0073 230.376 35.5364C230.563 36.0345 230.906 36.3613 231.404 36.517C231.902 36.6726 232.618 36.7504 233.551 36.7504H236.213C237.8 36.7504 239.123 36.4547 240.182 35.8633C241.271 35.2718 242.143 34.3069 242.796 32.9684C243.45 31.5988 243.932 29.7312 244.244 27.3655H245.318C245.224 28.3305 245.178 29.5755 245.178 31.1008C245.178 31.7545 245.193 32.7038 245.224 33.9489C245.286 35.1941 245.38 36.4858 245.504 37.8243C243.917 37.7621 242.127 37.7309 240.135 37.7309C238.143 37.6998 236.368 37.6842 234.812 37.6842C234.096 37.6842 233.147 37.6842 231.964 37.6842C230.812 37.6842 229.551 37.6998 228.182 37.7309C226.843 37.7309 225.474 37.7465 224.073 37.7776C222.704 37.7776 221.396 37.7932 220.151 37.8243V36.8905C221.178 36.8282 221.941 36.7037 222.439 36.517C222.968 36.3302 223.311 35.9567 223.466 35.3964C223.653 34.8361 223.746 33.9956 223.746 32.875V9.71622C223.746 8.56449 223.653 7.72405 223.466 7.1949C223.311 6.63461 222.968 6.26108 222.439 6.07431C221.941 5.8564 221.178 5.73193 220.151 5.70078V4.76696C221.396 4.7981 222.704 4.8292 224.073 4.86034C225.474 4.86034 226.843 4.87589 228.182 4.90703C229.551 4.90703 230.812 4.90703 231.964 4.90703C233.147 4.90703 234.096 4.90703 234.812 4.90703C236.244 4.90703 237.863 4.90703 239.668 4.90703C241.504 4.87589 243.139 4.8292 244.571 4.76696ZM237.053 20.7353C237.053 20.7353 237.053 20.891 237.053 21.2023C237.053 21.5135 237.053 21.6692 237.053 21.6692H228.742C228.742 21.6692 228.742 21.5135 228.742 21.2023C228.742 20.891 228.742 20.7353 228.742 20.7353H237.053ZM238.407 14.5721C238.283 16.3464 238.221 17.7004 238.221 18.6342C238.252 19.5681 238.267 20.4241 238.267 21.2023C238.267 21.9805 238.283 22.8364 238.314 23.7703C238.345 24.7041 238.423 26.0581 238.547 27.8324H237.474C237.318 26.7741 237.069 25.778 236.726 24.8442C236.415 23.8792 235.901 23.1166 235.186 22.5563C234.501 21.9649 233.505 21.6692 232.197 21.6692V20.7353C233.163 20.7353 233.94 20.533 234.532 20.1284C235.154 19.7237 235.653 19.2101 236.026 18.5875C236.4 17.9339 236.68 17.2646 236.867 16.5798C237.085 15.8639 237.24 15.1946 237.333 14.5721H238.407ZM276.881 4.76696C276.756 6.19884 276.663 7.59957 276.601 8.96916C276.569 10.3077 276.554 11.3349 276.554 12.0508C276.554 12.7667 276.569 13.436 276.601 14.0585C276.632 14.681 276.663 15.2258 276.694 15.6927H275.62C275.185 13.2025 274.655 11.257 274.033 9.8563C273.41 8.42442 272.585 7.39721 271.558 6.77468C270.562 6.15215 269.239 5.84086 267.589 5.84086H266.095V32.4548C266.095 33.731 266.204 34.6805 266.422 35.303C266.671 35.9255 267.154 36.3457 267.87 36.5637C268.585 36.7504 269.628 36.8593 270.998 36.8905V37.8243C270.064 37.7621 268.85 37.7309 267.356 37.7309C265.862 37.6998 264.336 37.6842 262.78 37.6842C261.161 37.6842 259.636 37.6998 258.204 37.7309C256.804 37.7309 255.668 37.7621 254.796 37.8243V36.8905C256.135 36.8593 257.162 36.7504 257.878 36.5637C258.593 36.3457 259.076 35.9255 259.325 35.303C259.574 34.6805 259.699 33.731 259.699 32.4548V5.84086H258.158C256.539 5.84086 255.216 6.15215 254.189 6.77468C253.162 7.39721 252.337 8.42442 251.714 9.8563C251.092 11.257 250.578 13.2025 250.174 15.6927H249.1C249.162 15.2258 249.193 14.681 249.193 14.0585C249.224 13.436 249.24 12.7667 249.24 12.0508C249.24 11.3349 249.208 10.3077 249.146 8.96916C249.115 7.59957 249.038 6.19884 248.913 4.76696C250.282 4.7981 251.792 4.8292 253.442 4.86034C255.092 4.89148 256.742 4.90703 258.391 4.90703C260.041 4.90703 261.551 4.90703 262.92 4.90703C264.259 4.90703 265.753 4.90703 267.403 4.90703C269.052 4.90703 270.702 4.89148 272.352 4.86034C274.001 4.8292 275.511 4.7981 276.881 4.76696Z" fill="#00050B"/>
<path d="M97.8676 67.7067L95.5088 61.5776H88.2296L85.8227 67.7067H84.5779L91.3948 50.3152H92.5093L99.1483 67.7067H97.8676ZM95.1175 60.4752L92.7227 53.9786C92.6592 53.8123 92.5803 53.599 92.4855 53.3384C92.3987 53.0774 92.3039 52.801 92.2012 52.5083C92.1064 52.216 92.0111 51.9391 91.9163 51.6786C91.8374 51.955 91.7506 52.2318 91.6558 52.5083C91.561 52.7851 91.47 53.0536 91.3831 53.3146C91.2958 53.5672 91.2132 53.7965 91.1338 54.0019L88.6442 60.4752H95.1175ZM119.55 63.2374C119.55 64.2726 119.289 65.142 118.768 65.8456C118.246 66.5408 117.539 67.0666 116.645 67.4224C115.752 67.7697 114.741 67.9439 113.61 67.9439C112.907 67.9439 112.267 67.9084 111.69 67.837C111.121 67.7739 110.603 67.6871 110.137 67.5764C109.679 67.4658 109.26 67.3393 108.88 67.1968V65.9759C109.497 66.2131 110.208 66.4222 111.014 66.6043C111.828 66.778 112.714 66.8649 113.67 66.8649C114.571 66.8649 115.369 66.7346 116.065 66.4736C116.768 66.2131 117.321 65.8176 117.724 65.2881C118.127 64.7586 118.329 64.0909 118.329 63.2846C118.329 62.5735 118.159 61.9926 117.819 61.5421C117.487 61.0836 116.985 60.6923 116.313 60.3683C115.642 60.0363 114.796 59.7006 113.777 59.3607C113.065 59.1155 112.417 58.8587 111.832 58.5903C111.255 58.3134 110.761 57.9973 110.35 57.6415C109.94 57.2782 109.623 56.8435 109.402 56.3374C109.188 55.8238 109.082 55.2192 109.082 54.5239C109.082 53.5672 109.323 52.7651 109.805 52.117C110.295 51.461 110.955 50.967 111.785 50.6355C112.622 50.2956 113.563 50.1256 114.606 50.1256C115.436 50.1256 116.223 50.2045 116.966 50.3628C117.716 50.5127 118.44 50.7419 119.135 51.0501L118.708 52.1053C118.013 51.8051 117.317 51.5838 116.622 51.4414C115.926 51.299 115.239 51.228 114.559 51.228C113.745 51.228 113.018 51.3503 112.378 51.5955C111.745 51.8326 111.243 52.1922 110.872 52.6745C110.5 53.1563 110.315 53.7652 110.315 54.5001C110.315 55.2588 110.484 55.8714 110.824 56.3374C111.172 56.8038 111.663 57.1914 112.295 57.4996C112.935 57.8077 113.689 58.1079 114.559 58.4002C115.586 58.7481 116.472 59.1155 117.215 59.5031C117.957 59.8822 118.53 60.3645 118.934 60.9491C119.345 61.5341 119.55 62.2966 119.55 63.2374ZM141.209 63.2374C141.209 64.2726 140.948 65.142 140.426 65.8456C139.905 66.5408 139.197 67.0666 138.304 67.4224C137.411 67.7697 136.399 67.9439 135.269 67.9439C134.565 67.9439 133.925 67.9084 133.349 67.837C132.78 67.7739 132.262 67.6871 131.795 67.5764C131.337 67.4658 130.918 67.3393 130.539 67.1968V65.9759C131.155 66.2131 131.867 66.4222 132.673 66.6043C133.487 66.778 134.372 66.8649 135.328 66.8649C136.23 66.8649 137.027 66.7346 137.723 66.4736C138.426 66.2131 138.98 65.8176 139.383 65.2881C139.786 64.7586 139.987 64.0909 139.987 63.2846C139.987 62.5735 139.817 61.9926 139.478 61.5421C139.146 61.0836 138.644 60.6923 137.972 60.3683C137.3 60.0363 136.455 59.7006 135.435 59.3607C134.724 59.1155 134.076 58.8587 133.491 58.5903C132.914 58.3134 132.42 57.9973 132.009 57.6415C131.598 57.2782 131.282 56.8435 131.06 56.3374C130.847 55.8238 130.741 55.2192 130.741 54.5239C130.741 53.5672 130.981 52.7651 131.463 52.117C131.954 51.461 132.613 50.967 133.443 50.6355C134.281 50.2956 135.221 50.1256 136.265 50.1256C137.095 50.1256 137.881 50.2045 138.624 50.3628C139.375 50.5127 140.098 50.7419 140.794 51.0501L140.367 52.1053C139.671 51.8051 138.976 51.5838 138.28 51.4414C137.585 51.299 136.897 51.228 136.217 51.228C135.404 51.228 134.676 51.3503 134.036 51.5955C133.404 51.8326 132.902 52.1922 132.531 52.6745C132.159 53.1563 131.973 53.7652 131.973 54.5001C131.973 55.2588 132.143 55.8714 132.483 56.3374C132.831 56.8038 133.321 57.1914 133.953 57.4996C134.593 57.8077 135.348 58.1079 136.217 58.4002C137.245 58.7481 138.13 59.1155 138.873 59.5031C139.616 59.8822 140.189 60.3645 140.592 60.9491C141.003 61.5341 141.209 62.2966 141.209 63.2374ZM153.324 67.7067V50.3745H154.545V67.7067H153.324ZM177.389 63.2374C177.389 64.2726 177.128 65.142 176.606 65.8456C176.085 66.5408 175.377 67.0666 174.484 67.4224C173.591 67.7697 172.58 67.9439 171.449 67.9439C170.746 67.9439 170.106 67.9084 169.529 67.837C168.96 67.7739 168.442 67.6871 167.976 67.5764C167.517 67.4658 167.098 67.3393 166.719 67.1968V65.9759C167.336 66.2131 168.047 66.4222 168.853 66.6043C169.667 66.778 170.552 66.8649 171.508 66.8649C172.41 66.8649 173.208 66.7346 173.903 66.4736C174.607 66.2131 175.16 65.8176 175.563 65.2881C175.966 64.7586 176.168 64.0909 176.168 63.2846C176.168 62.5735 175.998 61.9926 175.658 61.5421C175.326 61.0836 174.824 60.6923 174.152 60.3683C173.48 60.0363 172.635 59.7006 171.615 59.3607C170.904 59.1155 170.256 58.8587 169.671 58.5903C169.094 58.3134 168.6 57.9973 168.189 57.6415C167.778 57.2782 167.462 56.8435 167.24 56.3374C167.027 55.8238 166.921 55.2192 166.921 54.5239C166.921 53.5672 167.162 52.7651 167.644 52.117C168.134 51.461 168.794 50.967 169.624 50.6355C170.461 50.2956 171.402 50.1256 172.445 50.1256C173.275 50.1256 174.062 50.2045 174.804 50.3628C175.555 50.5127 176.278 50.7419 176.974 51.0501L176.547 52.1053C175.852 51.8051 175.156 51.5838 174.46 51.4414C173.765 51.299 173.077 51.228 172.397 51.228C171.584 51.228 170.857 51.3503 170.217 51.5955C169.584 51.8326 169.082 52.1922 168.711 52.6745C168.339 53.1563 168.154 53.7652 168.154 54.5001C168.154 55.2588 168.323 55.8714 168.663 56.3374C169.011 56.8038 169.501 57.1914 170.133 57.4996C170.774 57.8077 171.528 58.1079 172.397 58.4002C173.425 58.7481 174.31 59.1155 175.053 59.5031C175.796 59.8822 176.369 60.3645 176.772 60.9491C177.183 61.5341 177.389 62.2966 177.389 63.2374ZM194.032 67.7067H192.8V51.4769H187.18V50.3745H199.652V51.4769H194.032V67.7067ZM221.488 67.7067L219.129 61.5776H211.85L209.443 67.7067H208.198L215.015 50.3152H216.13L222.768 67.7067H221.488ZM218.738 60.4752L216.343 53.9786C216.28 53.8123 216.201 53.599 216.106 53.3384C216.019 53.0774 215.924 52.801 215.821 52.5083C215.726 52.216 215.632 51.9391 215.537 51.6786C215.458 51.955 215.371 52.2318 215.276 52.5083C215.181 52.7851 215.09 53.0536 215.003 53.3146C214.916 53.5672 214.833 53.7965 214.754 54.0019L212.265 60.4752H218.738ZM246.241 67.7067H244.996L234.753 52.378H234.694C234.71 52.8047 234.722 53.2394 234.729 53.6821C234.745 54.1168 234.757 54.5673 234.765 55.0333C234.781 55.4918 234.789 55.9662 234.789 56.456V67.7067H233.627V50.3745H234.884L245.091 65.6556H245.15C245.142 65.3082 245.13 64.9048 245.115 64.4467C245.107 63.9882 245.095 63.518 245.079 63.0357C245.071 62.5539 245.067 62.0991 245.067 61.6723V50.3745H246.241V67.7067ZM264.082 67.7067H262.849V51.4769H257.23V50.3745H269.701V51.4769H264.082V67.7067Z" fill="#00050B"/>
<path d="M50.4667 2.02856H6.46667C4.25754 2.02856 2.46667 3.81943 2.46667 6.02856V66.0286C2.46667 68.2377 4.25754 70.0286 6.46667 70.0286H50.4667C52.6758 70.0286 54.4667 68.2377 54.4667 66.0286V6.02856C54.4667 3.81943 52.6758 2.02856 50.4667 2.02856Z" fill="white" stroke="#005DD6" stroke-width="4"/>
<path d="M54.8146 33.5286H2.11902V37.5286H54.8146V33.5286Z" fill="#005DD6"/>
<path d="M31.1755 16.5287H25.7583C24.769 16.5287 23.9669 17.3307 23.9669 18.3201C23.9669 19.3095 24.769 20.1115 25.7583 20.1115H31.1755C32.1649 20.1115 32.9669 19.3095 32.9669 18.3201C32.9669 17.3307 32.1649 16.5287 31.1755 16.5287Z" fill="#005DD6"/>
<path d="M31.1755 50.5286H25.7583C24.769 50.5286 23.9669 51.3306 23.9669 52.32C23.9669 53.3094 24.769 54.1114 25.7583 54.1114H31.1755C32.1649 54.1114 32.9669 53.3094 32.9669 52.32C32.9669 51.3306 32.1649 50.5286 31.1755 50.5286Z" fill="#005DD6"/>
</svg>
