<svg width="57" height="56" viewBox="0 0 57 56" fill="none" xmlns="http://www.w3.org/2000/svg">
<path d="M16.9425 21.0001C21.4528 21.0001 25.1092 17.3437 25.1092 12.8334C25.1092 8.32309 21.4528 4.66675 16.9425 4.66675C12.4322 4.66675 8.77582 8.32309 8.77582 12.8334C8.77582 17.3437 12.4322 21.0001 16.9425 21.0001Z" fill="white" stroke="#005DD6" stroke-width="3" stroke-linejoin="round"/>
<path d="M40.2758 21.0001C44.7861 21.0001 48.4425 17.3437 48.4425 12.8334C48.4425 8.32309 44.7861 4.66675 40.2758 4.66675C35.7655 4.66675 32.1091 8.32309 32.1091 12.8334C32.1091 17.3437 35.7655 21.0001 40.2758 21.0001Z" fill="white" stroke="#005DD6" stroke-width="3" stroke-linejoin="round"/>
<path d="M5.27582 51.3334C5.27582 50.2964 5.27582 46.7964 5.27582 40.8334C5.27582 34.3901 9.67442 29.1667 15.1004 29.1667C17.7203 29.1667 19.6852 29.1667 20.9951 29.1667C25.761 29.1667 28.6093 33.8648 28.6093 33.8648" stroke="#005DD6" stroke-width="3" stroke-linecap="round" stroke-linejoin="round"/>
<path d="M51.9422 51.3334C51.9422 50.2964 51.9422 46.7964 51.9422 40.8334C51.9422 34.3901 47.4913 29.1667 42.0007 29.1667C39.3497 29.1667 37.3615 29.1667 36.0359 29.1667C31.4145 29.1667 28.5998 33.8648 28.6088 33.8648" stroke="#005DD6" stroke-width="3" stroke-linecap="round" stroke-linejoin="round"/>
<path d="M13.4424 46.6667H44.9424" stroke="#005DD6" stroke-width="3" stroke-linecap="round" stroke-linejoin="round"/>
<path d="M40.6204 42.3013L42.0666 43.7563L44.9589 46.6664L42.0666 49.6548L40.6204 51.149" stroke="#005DD6" stroke-width="3" stroke-linecap="round" stroke-linejoin="round"/>
<path d="M17.3269 42.2708L15.8578 43.7333L12.9197 46.6582L15.8578 49.6317L17.3269 51.1185" stroke="#005DD6" stroke-width="3" stroke-linecap="round" stroke-linejoin="round"/>
</svg>
