<svg fill="none" height="41" viewBox="0 0 40 41" width="40" xmlns="http://www.w3.org/2000/svg">
    <rect fill="#005DD6" height="40" rx="4" width="40" y="0.248779" />
    <path
        d="M15 14.385V13.1654C15 12.4751 15.5596 11.9154 16.25 11.9154H27.0833C27.7737 11.9154 28.3333 12.4751 28.3333 13.1654V23.9987C28.3333 24.6891 27.7737 25.2487 27.0833 25.2487H25.8406"
        stroke="white" stroke-width="1.5" />
    <path
        d="M24.5834 14.4154H12.9167C12.2264 14.4154 11.6667 14.975 11.6667 15.6654V27.3321C11.6667 28.0224 12.2264 28.5821 12.9167 28.5821H24.5834C25.2738 28.5821 25.8334 28.0224 25.8334 27.3321V15.6654C25.8334 14.975 25.2738 14.4154 24.5834 14.4154Z"
        fill="#005DD6" stroke="white" stroke-linejoin="round" stroke-width="1.5" />
    <path
        d="M17.6831 19.8779L19.8883 17.5823C20.4932 16.9774 21.4871 16.9907 22.1084 17.612C22.7297 18.2333 22.7431 19.2273 22.1382 19.8322L21.3424 20.675"
        stroke="white" stroke-linecap="round" stroke-linejoin="round" stroke-width="1.5" />
    <path
        d="M15.6109 22.2267C15.3983 22.4394 14.9586 22.8639 14.9586 22.8639C14.3537 23.4688 14.3373 24.5468 14.9586 25.1681C15.5799 25.7894 16.5739 25.8027 17.1787 25.1979L19.3305 23.2444"
        stroke="white" stroke-linecap="round" stroke-linejoin="round" stroke-width="1.5" />
    <path
        d="M17.7764 22.0523C17.4878 21.7637 17.3304 21.3947 17.3051 21.0216C17.2761 20.5915 17.4227 20.1561 17.7466 19.8322"
        stroke="white" stroke-linecap="round" stroke-linejoin="round" stroke-width="1.5" />
    <path d="M19.3008 21.0243C19.9221 21.6456 19.9354 22.6395 19.3305 23.2444" stroke="white"
        stroke-linecap="round" stroke-linejoin="round" stroke-width="1.5" />
</svg>
