<svg width="24" height="25" viewBox="0 0 24 25" fill="none" xmlns="http://www.w3.org/2000/svg">
<path d="M5.97228 7.99477V5.66144H4.02783L5.97228 7.99477ZM5.97228 7.99477L7.63267 14.6364C7.79961 15.3041 8.39958 15.7725 9.08789 15.7725H16.8567C17.545 15.7725 18.1449 15.3041 18.3119 14.6364L19.5063 9.85857C19.743 8.91185 19.027 7.99477 18.0511 7.99477H5.97228Z" stroke="#737679" stroke-width="1.5" stroke-linecap="round" stroke-linejoin="round"/>
<path d="M9.09233 20.2146C9.73666 20.2146 10.259 19.6923 10.259 19.048C10.259 18.4036 9.73666 17.8813 9.09233 17.8813C8.44799 17.8813 7.92566 18.4036 7.92566 19.048C7.92566 19.6923 8.44799 20.2146 9.09233 20.2146Z" stroke="#737679" stroke-width="1.5" stroke-linecap="round" stroke-linejoin="round"/>
<path d="M16.9906 20.2146C17.635 20.2146 18.1573 19.6923 18.1573 19.048C18.1573 18.4036 17.635 17.8813 16.9906 17.8813C16.3463 17.8813 15.824 18.4036 15.824 19.048C15.824 19.6923 16.3463 20.2146 16.9906 20.2146Z" stroke="#737679" stroke-width="1.5" stroke-linecap="round" stroke-linejoin="round"/>
</svg>
