<svg width="24" height="25" viewBox="0 0 24 25" fill="none" xmlns="http://www.w3.org/2000/svg">
    <path fill-rule="evenodd" clip-rule="evenodd"
          d="M18 1.5H6C4.89543 1.5 4 2.39543 4 3.5V21.5C4 22.6046 4.89543 23.5 6 23.5H18C19.1046 23.5 20 22.6046 20 21.5V3.5C20 2.39543 19.1046 1.5 18 1.5ZM6 7.5V3.5H18V7.5H6ZM6 9.5V21.5H18V9.5H6ZM10 19.5H8V17.5H10V19.5ZM11 19.5H13V17.5H11V19.5ZM16 19.5H14V16.5V15.5V14.5H16V15.5V16.5V19.5ZM8 16.5H10V14.5H8V16.5ZM13 16.5H11V14.5H13V16.5ZM10 13.5H8V11.5H10V13.5ZM11 13.5H13V11.5H11V13.5ZM16 13.5H14V11.5H16V13.5Z"
          fill="#44BF75"/>
</svg>
