<svg width="24" height="25" viewBox="0 0 24 25" fill="none" xmlns="http://www.w3.org/2000/svg">
<path d="M4.02783 4.75415H5.97228V7.08748L4.02783 4.75415ZM5.97228 7.08748L7.63267 13.7291C7.79961 14.3968 8.39958 14.8653 9.08789 14.8653H16.8567C17.545 14.8653 18.1449 14.3968 18.3119 13.7291L19.5063 8.95129C19.743 8.00457 19.027 7.08748 18.0511 7.08748H5.97228Z" fill="#D9E7F9"/>
<path d="M5.97228 7.08748V4.75415H4.02783L5.97228 7.08748ZM5.97228 7.08748L7.63267 13.7291C7.79961 14.3968 8.39958 14.8653 9.08789 14.8653H16.8567C17.545 14.8653 18.1449 14.3968 18.3119 13.7291L19.5063 8.95129C19.743 8.00457 19.027 7.08748 18.0511 7.08748H5.97228Z" stroke="#005DD6" stroke-width="1.5" stroke-linecap="round" stroke-linejoin="round"/>
<path d="M9.09233 19.3075C9.73666 19.3075 10.259 18.7851 10.259 18.1408C10.259 17.4965 9.73666 16.9741 9.09233 16.9741C8.44799 16.9741 7.92566 17.4965 7.92566 18.1408C7.92566 18.7851 8.44799 19.3075 9.09233 19.3075Z" fill="#D9E7F9" stroke="#005DD6" stroke-width="1.5" stroke-linecap="round" stroke-linejoin="round"/>
<path d="M16.9906 19.3075C17.635 19.3075 18.1573 18.7851 18.1573 18.1408C18.1573 17.4965 17.635 16.9741 16.9906 16.9741C16.3463 16.9741 15.824 17.4965 15.824 18.1408C15.824 18.7851 16.3463 19.3075 16.9906 19.3075Z" fill="#D9E7F9" stroke="#005DD6" stroke-width="1.5" stroke-linecap="round" stroke-linejoin="round"/>
</svg>
