<svg fill="none" height="20" viewBox="0 0 22 20" width="22" xmlns="http://www.w3.org/2000/svg">
    <path
        d="M10.9074 16.7032C14.5917 16.7032 17.5784 13.7165 17.5784 10.0322C17.5784 6.3479 14.5917 3.36121 10.9074 3.36121C7.22315 3.36121 4.23645 6.3479 4.23645 10.0322C4.23645 13.7165 7.22315 16.7032 10.9074 16.7032Z"
        stroke="#005DD6" stroke-linecap="round" stroke-linejoin="round" stroke-width="1.5" />
    <path
        d="M11.2285 6.83551L12.0585 8.51689C12.0751 8.55102 12.0998 8.58057 12.1304 8.60295C12.1611 8.62534 12.1967 8.63987 12.2343 8.64529L14.0899 8.91431C14.1334 8.92064 14.1743 8.93904 14.2079 8.96742C14.2415 8.99579 14.2665 9.03302 14.28 9.07487C14.2936 9.11672 14.2951 9.16152 14.2845 9.2042C14.2738 9.24687 14.2514 9.28571 14.2198 9.31632L12.8778 10.6247C12.8504 10.6512 12.8299 10.684 12.8182 10.7203C12.8065 10.7565 12.8038 10.7951 12.8105 10.8326L13.1269 12.6791C13.1348 12.7224 13.1302 12.767 13.1138 12.8079C13.0974 12.8487 13.0699 12.8841 13.0343 12.9099C12.9987 12.9358 12.9565 12.9511 12.9126 12.9541C12.8687 12.957 12.8248 12.9476 12.7861 12.9267L11.1276 12.0555C11.0937 12.0374 11.0559 12.0279 11.0176 12.0279C10.9792 12.0279 10.9414 12.0374 10.9075 12.0555L9.24905 12.9267C9.21029 12.9476 9.16644 12.957 9.12254 12.9541C9.07864 12.9511 9.03646 12.9358 9.00086 12.9099C8.96526 12.8841 8.93768 12.8487 8.92129 12.8079C8.90489 12.767 8.90035 12.7224 8.90818 12.6791L9.22459 10.8326C9.23128 10.7951 9.22865 10.7565 9.21692 10.7203C9.20519 10.684 9.18473 10.6512 9.15734 10.6247L7.81528 9.31632C7.78369 9.28571 7.76131 9.24687 7.75067 9.2042C7.74003 9.16152 7.74156 9.11672 7.75509 9.07487C7.76862 9.03302 7.7936 8.99579 7.8272 8.96742C7.8608 8.93904 7.90168 8.92064 7.94521 8.91431L9.80085 8.64529C9.83841 8.63987 9.87406 8.62534 9.90471 8.60295C9.93535 8.58057 9.96004 8.55102 9.97663 8.51689L10.8066 6.83551C10.8261 6.7962 10.8562 6.76311 10.8934 6.73998C10.9307 6.71685 10.9737 6.70459 11.0176 6.70459C11.0614 6.70459 11.1044 6.71685 11.1417 6.73998C11.179 6.76311 11.209 6.7962 11.2285 6.83551Z"
        stroke="#005DD6" stroke-linecap="round" stroke-linejoin="round" stroke-width="1.5" />
    <path d="M2.7951 6.50671L4.09089 7.07476L2.7951 6.50671" stroke="#005DD6" stroke-linecap="round"
        stroke-linejoin="round" stroke-width="1.5" />
    <path d="M7.70737 1.90369L8.22083 3.22171L7.70737 1.90369Z" stroke="#005DD6"
        stroke-linecap="round" stroke-linejoin="round" stroke-width="1.5" />
    <path d="M14.4329 2.12207L13.8649 3.41786L14.4329 2.12207" stroke="#005DD6"
        stroke-linecap="round" stroke-linejoin="round" stroke-width="1.5" />
    <path d="M19.0359 7.0343L17.7179 7.54776L19.0359 7.0343Z" stroke="#005DD6"
        stroke-linecap="round" stroke-linejoin="round" stroke-width="1.5" />
    <path d="M5.65959 4.84502L4.65894 3.84437L3.65829 2.83362L4.65894 3.84437L5.65959 4.84502Z"
        stroke="#005DD6" stroke-linecap="round" stroke-linejoin="round" stroke-width="1.5" />
    <path d="M16.0947 4.98652L17.1054 3.98588L18.1162 2.98523L17.1054 3.98588L16.0947 4.98652Z"
        stroke="#005DD6" stroke-linecap="round" stroke-linejoin="round" stroke-width="1.5" />
    <path d="M2.7951 13.5577L4.09089 12.9896L2.7951 13.5577" stroke="#005DD6" stroke-linecap="round"
        stroke-linejoin="round" stroke-width="1.5" />
    <path d="M7.70737 18.1607L8.22083 16.8427L7.70737 18.1607Z" stroke="#005DD6"
        stroke-linecap="round" stroke-linejoin="round" stroke-width="1.5" />
    <path d="M14.4329 17.9424L13.8649 16.6466L14.4329 17.9424Z" stroke="#005DD6"
        stroke-linecap="round" stroke-linejoin="round" stroke-width="1.5" />
    <path d="M19.0359 13.0301L17.7179 12.5166L19.0359 13.0301Z" stroke="#005DD6"
        stroke-linecap="round" stroke-linejoin="round" stroke-width="1.5" />
    <path d="M5.65959 15.2195L4.65894 16.2302L3.65829 17.241L4.65894 16.2302L5.65959 15.2195Z"
        stroke="#005DD6" stroke-linecap="round" stroke-linejoin="round" stroke-width="1.5" />
    <path d="M16.0947 15.0779L17.1054 16.0886L18.1162 17.0994L17.1054 16.0886L16.0947 15.0779Z"
        stroke="#005DD6" stroke-linecap="round" stroke-linejoin="round" stroke-width="1.5" />
    <line stroke="#005DD6" stroke-linecap="round" stroke-linejoin="round" stroke-width="1.5"
        x1="11.0391" x2="11.0391" y1="2.73767" y2="0.749988" />
    <line stroke="#005DD6" stroke-linecap="round" stroke-linejoin="round" stroke-width="1.5"
        x1="10.8947" x2="10.8947" y1="19.25" y2="17.3966" />
    <line stroke="#005DD6" stroke-linecap="round" stroke-linejoin="round" stroke-width="1.5"
        x1="1.73236" x2="3.48642" y1="9.87964" y2="9.87964" />
    <line stroke="#005DD6" stroke-linecap="round" stroke-linejoin="round" stroke-width="1.5"
        x1="18.2261" x2="20.2676" y1="9.87964" y2="9.87964" />
</svg>
