<svg width="24" height="25" viewBox="0 0 24 25" fill="none" xmlns="http://www.w3.org/2000/svg">
<path fill-rule="evenodd" clip-rule="evenodd" d="M20 13.5H15C13.8954 13.5 13 14.3954 13 15.5V20.5C13 21.6046 13.8954 22.5 15 22.5H20C21.1046 22.5 22 21.6046 22 20.5V15.5C22 14.3954 21.1046 13.5 20 13.5ZM15 20.5V15.5H20V20.5H15ZM11 4.5V20.5C11 21.6046 10.1046 22.5 9 22.5H4C2.89543 22.5 2 21.6046 2 20.5V4.5C2 3.39543 2.89543 2.5 4 2.5H9C10.1046 2.5 11 3.39543 11 4.5ZM9 4.5H4V20.5H9V4.5ZM20 2.5H15C13.8954 2.5 13 3.39543 13 4.5V9.5C13 10.6046 13.8954 11.5 15 11.5H20C21.1046 11.5 22 10.6046 22 9.5V4.5C22 3.39543 21.1046 2.5 20 2.5ZM15 9.5V4.5H20V9.5H15Z" fill="#CDCDCD"/>
</svg>
