<svg width="33" height="20" viewBox="0 0 33 20" fill="none" xmlns="http://www.w3.org/2000/svg">
<path d="M23.4611 6.12219V13.5249C23.4611 16.4201 18.5011 18.7665 12.3757 18.7665C6.25042 18.7665 1.28967 16.4201 1.28967 13.5249V6.40342" stroke="#003375" stroke-linecap="round" stroke-linejoin="round"/>
<path d="M23.4612 6.43298C25.0158 7.98756 28.8708 8.23571 31.7789 8.23571C31.9709 8.23798 32.1542 8.31577 32.2891 8.45222C32.4241 8.58867 32.4999 8.7728 32.5 8.96473V13.8818C32.5002 14.0748 32.4239 14.26 32.2878 14.3968C32.1517 14.5336 31.9669 14.6108 31.7739 14.6116C28.5289 14.6116 24.9202 14.2534 23.4612 12.7944" stroke="#003375" stroke-linecap="round" stroke-linejoin="round"/>
<path d="M29.3433 8.49377L29.3433 14.4104" stroke="#003375" stroke-linecap="round" stroke-linejoin="round"/>
<path d="M26.2957 8.23547L26.2957 10.9722" stroke="#003375" stroke-linecap="round" stroke-linejoin="round"/>
<path d="M7.53204 11.0537V14.9858" stroke="#003375" stroke-linecap="round" stroke-linejoin="round"/>
<path d="M13.8026 11.3357V15.2678" stroke="#003375" stroke-linecap="round" stroke-linejoin="round"/>
<path d="M20.0731 9.98425V13.9164" stroke="#003375" stroke-linecap="round" stroke-linejoin="round"/>
<path d="M16.9379 10.9723V13.9165" stroke="#003375" stroke-linecap="round" stroke-linejoin="round"/>
<path d="M10.6674 11.2261V14.1703" stroke="#003375" stroke-linecap="round" stroke-linejoin="round"/>
<path d="M4.39685 9.8501V12.7943" stroke="#003375" stroke-linecap="round" stroke-linejoin="round"/>
<ellipse cx="12.3754" cy="6.10291" rx="11.0857" ry="4.86927" stroke="#003375" stroke-linecap="round" stroke-linejoin="round"/>
<ellipse cx="12.3754" cy="6.10281" rx="3.97034" ry="1.74392" stroke="#003375" stroke-linecap="round" stroke-linejoin="round"/>
</svg>
