<svg width="24" height="24" viewBox="0 0 24 24" fill="none" xmlns="http://www.w3.org/2000/svg">
<path fill-rule="evenodd" clip-rule="evenodd" d="M4 18.6667V4.22222H16V18.6667C16 19.0563 16.0602 19.4302 16.1707 19.7778H5C4.44772 19.7778 4 19.2803 4 18.6667ZM19 22H5C3.34315 22 2 20.5076 2 18.6667V2H16H17H18V7.55556H22V8.66667V9.77778V18.6667C22 20.5076 20.6569 22 19 22ZM18 9.77778H20V18.6667C20 19.2803 19.5523 19.7778 19 19.7778C18.4477 19.7778 18 19.2803 18 18.6667V9.77778ZM10 6.44444V10.8889H6V6.44444H10ZM14 9.77778V7.55556H11V9.77778H14ZM14 12V14.2222H6V12H14ZM14 17.5556V15.3333H6V17.5556H14Z" fill="#44BF75"/>
</svg>
