<svg width="24" height="25" viewBox="0 0 24 25" fill="none" xmlns="http://www.w3.org/2000/svg">
<path fill-rule="evenodd" clip-rule="evenodd" d="M4 19.1667V4.72222H16V19.1667C16 19.5563 16.0602 19.9302 16.1707 20.2778H5C4.44772 20.2778 4 19.7803 4 19.1667ZM19 22.5H5C3.34315 22.5 2 21.0076 2 19.1667V2.5H16H17H18V8.05556H22V9.16667V10.2778V19.1667C22 21.0076 20.6569 22.5 19 22.5ZM18 10.2778H20V19.1667C20 19.7803 19.5523 20.2778 19 20.2778C18.4477 20.2778 18 19.7803 18 19.1667V10.2778ZM10 6.94444V11.3889H6V6.94444H10ZM14 10.2778V8.05556H11V10.2778H14ZM14 12.5V14.7222H6V12.5H14ZM14 18.0556V15.8333H6V18.0556H14Z" fill="#CDCDCD"/>
</svg>
