<svg width="24" height="24" viewBox="0 0 24 24" fill="none" xmlns="http://www.w3.org/2000/svg">
<path d="M12 10.6C13.5463 10.6 14.8 9.3464 14.8 7.8C14.8 6.2536 13.5463 5 12 5C10.4536 5 9.19995 6.2536 9.19995 7.8C9.19995 9.3464 10.4536 10.6 12 10.6Z" fill="#D9E7F9"/>
<path d="M18.3 19C18.3 15.5206 15.4793 12.7 12 12.7C8.52057 12.7 5.69995 15.5206 5.69995 19" fill="#D9E7F9"/>
<path d="M18.3 19C18.3 15.5206 15.4793 12.7 12 12.7C8.52057 12.7 5.69995 15.5206 5.69995 19M14.8 7.8C14.8 9.3464 13.5463 10.6 12 10.6C10.4536 10.6 9.19995 9.3464 9.19995 7.8C9.19995 6.2536 10.4536 5 12 5C13.5463 5 14.8 6.2536 14.8 7.8Z" stroke="#005DD6" stroke-width="1.5" stroke-linecap="round" stroke-linejoin="round"/>
</svg>
