<svg width="105" height="104" viewBox="0 0 105 104" fill="none" xmlns="http://www.w3.org/2000/svg">
<g filter="url(#filter0_d_365_2404)">
<rect x="12.2999" y="6" width="80" height="80" rx="40" fill="#005DD6"/>
<path d="M28.9011 32.2452L26.994 29.7024C27.8127 29.4991 28.5557 28.7656 28.4537 27.5564C28.3464 26.2858 27.3814 25.4901 26.0288 25.6043L23.0265 25.8577L23.6034 32.6924L24.8023 32.5912L24.5869 30.0397L25.7858 29.9385L27.5075 32.3628L28.9011 32.2452ZM26.1476 28.845L24.4978 28.9843L24.3145 26.8119L25.9642 26.6727C26.6405 26.6156 27.1678 26.9942 27.2232 27.65C27.2794 28.316 26.8239 28.7879 26.1476 28.845Z" fill="white"/>
<path d="M34.7306 31.7531L34.6415 30.6977L31.1575 30.9918L30.9967 29.0858L34.4089 28.7978L34.3198 27.7424L30.9076 28.0304L30.7588 26.2679L34.2427 25.9739L34.1536 24.9184L29.4708 25.3137L30.0478 32.1484L34.7306 31.7531Z" fill="white"/>
<path d="M39.1691 31.5023C39.8044 31.4486 40.3764 31.2559 40.856 30.9471L41.5066 31.5629L42.2777 30.7961L41.6605 30.2084C42.1816 29.5349 42.4479 28.6558 42.3649 27.6721C42.1928 25.633 40.6114 24.2598 38.5723 24.4319C36.5229 24.6049 35.2044 26.2229 35.3765 28.262C35.5487 30.3012 37.1198 31.6753 39.1691 31.5023ZM39.0792 30.4366C37.6959 30.5534 36.7247 29.5621 36.6062 28.1582C36.4868 26.7442 37.2789 25.6144 38.6623 25.4976C40.0353 25.3817 41.0159 26.3618 41.1353 27.7759C41.1863 28.3805 41.0682 28.9374 40.8065 29.3826L39.8747 28.4912L39.0933 29.2589L40.0251 30.1503C39.7494 30.3078 39.4378 30.4063 39.0792 30.4366Z" fill="white"/>
<path d="M46.7687 30.8607C48.7566 30.6929 49.6341 29.4734 49.4913 27.7826L49.1428 23.6531L47.9234 23.7561L48.2694 27.8548C48.3611 28.941 47.8162 29.6991 46.6788 29.7951C45.5414 29.8911 44.8771 29.2351 44.7854 28.1489L44.4394 24.0502L43.2201 24.1531L43.5686 28.2826C43.7114 29.9733 44.7911 31.0277 46.7687 30.8607Z" fill="white"/>
<path d="M55.8548 29.9699L55.7657 28.9145L52.2817 29.2086L52.1209 27.3027L55.5331 27.0146L55.444 25.9592L52.0318 26.2472L51.883 24.4848L55.3669 24.1907L55.2778 23.1352L50.595 23.5305L51.172 30.3652L55.8548 29.9699Z" fill="white"/>
<path d="M59.4428 29.7909C61.277 29.636 62.0035 28.584 61.9075 27.4466C61.693 24.9054 57.7838 26.03 57.6757 24.7491C57.6333 24.247 58.0547 23.8606 58.7515 23.8018C59.4688 23.7412 60.2171 23.9257 60.806 24.423L61.4071 23.4744C60.7301 22.9123 59.8297 22.6375 58.7743 22.7266C57.268 22.8537 56.3578 23.8077 56.4538 24.9451C56.6657 27.4556 60.5663 26.2285 60.6874 27.6631C60.7263 28.1242 60.3878 28.6378 59.4041 28.7209C58.4512 28.8013 57.6651 28.4136 57.1616 27.9504L56.564 28.94C57.2324 29.5234 58.1825 29.8973 59.4428 29.7909Z" fill="white"/>
<path d="M65.8981 29.1221L65.4102 23.3429L67.4801 23.1681L67.391 22.1127L62.0524 22.5634L62.1415 23.6188L64.2114 23.4441L64.6992 29.2233L65.8981 29.1221Z" fill="white"/>
<path d="M19.8834 62.5346C21.2203 62.4431 21.9998 61.6781 22.454 60.8451L21.4222 60.4146C21.1405 60.9852 20.5207 61.4486 19.8124 61.4971C18.4954 61.5872 17.4481 60.6366 17.3531 59.2498C17.2568 57.8431 18.1662 56.7785 19.4831 56.6883C20.1915 56.6398 20.868 57.0045 21.2255 57.5413L22.1776 56.9549C21.6341 56.1902 20.749 55.5592 19.4121 55.6508C17.4467 55.7853 16.0152 57.2766 16.1559 59.3318C16.2959 61.377 17.918 62.6692 19.8834 62.5346ZM26.5941 62.0752C28.5794 61.9393 29.8964 60.3857 29.7605 58.4003C29.6245 56.415 28.1081 55.0554 26.1228 55.1913C24.1275 55.3279 22.8205 56.8808 22.9564 58.8662C23.0923 60.8515 24.5988 62.2118 26.5941 62.0752ZM26.5231 61.0376C25.1762 61.1298 24.2472 60.151 24.1536 58.7842C24.0593 57.4074 24.847 56.3211 26.1938 56.2289C27.5307 56.1373 28.469 57.1055 28.5633 58.4823C28.6569 59.8491 27.8599 60.9461 26.5231 61.0376ZM36.8683 61.2515L36.4127 54.5971L35.2454 54.677L35.561 59.2862L31.8434 54.9099L30.6462 54.9919L31.1018 61.6463L32.2691 61.5664L31.9433 56.8075L35.7409 61.3287L36.8683 61.2515ZM40.5751 61.118C42.3609 60.9957 43.0835 59.984 43.0077 58.8766C42.8383 56.4024 39.02 57.4356 38.9346 56.1885C38.9011 55.6997 39.3169 55.3304 39.9953 55.284C40.6936 55.2361 41.4184 55.4271 41.9833 55.9196L42.5824 55.0066C41.9328 54.4497 41.0616 54.1685 40.034 54.2389C38.5674 54.3393 37.6677 55.2529 37.7435 56.3603C37.9109 58.8046 41.7224 57.6716 41.818 59.0683C41.8487 59.5172 41.5117 60.0114 40.554 60.077C39.6261 60.1405 38.8678 59.7514 38.3854 59.2933L37.7891 60.2462C38.43 60.8238 39.348 61.202 40.5751 61.118ZM47.0973 60.6714C49.0328 60.5389 49.9048 59.3666 49.7921 57.7205L49.5168 53.6999L48.3296 53.7812L48.6028 57.7718C48.6752 58.8293 48.1337 59.558 47.0263 59.6339C45.9189 59.7097 45.2831 59.0616 45.2107 58.0041L44.9375 54.0134L43.7503 54.0947L44.0256 58.1153C44.1383 59.7614 45.1719 60.8033 47.0973 60.6714ZM55.4069 59.9822L55.3366 58.9546L52.4035 59.1555L52.0182 53.5286L50.8509 53.6085L51.3065 60.263L55.4069 59.9822ZM58.1929 59.7915L57.8077 54.1647L59.823 54.0267L59.7526 52.9991L54.5548 53.355L54.6251 54.3826L56.6404 54.2446L57.0257 59.8714L58.1929 59.7915ZM66.5406 59.22L63.4711 52.7445L62.0145 52.8442L59.8562 59.6776L61.1831 59.5868L61.5838 58.2663L64.6367 58.0573L65.2137 59.3108L66.5406 59.22ZM64.2371 57.0522L61.8427 57.2162L62.8227 53.9616L64.2371 57.0522ZM69.3582 59.027L68.9729 53.4002L70.9882 53.2622L70.9179 52.2346L65.72 52.5905L65.7904 53.6181L67.8057 53.4801L68.1909 59.107L69.3582 59.027ZM73.5299 58.7414L73.0743 52.087L71.907 52.1669L72.3626 58.8213L73.5299 58.7414ZM78.0654 58.5512C80.0507 58.4153 81.3677 56.8617 81.2318 54.8763C81.0958 52.891 79.5794 51.5314 77.5941 51.6673C75.5988 51.8039 74.2918 53.3568 74.4277 55.3422C74.5636 57.3275 76.0701 58.6878 78.0654 58.5512ZM77.9944 57.5136C76.6475 57.6058 75.7185 56.627 75.6249 55.2602C75.5306 53.8834 76.3183 52.7971 77.6651 52.7049C79.002 52.6133 79.9403 53.5815 80.0346 54.9583C80.1282 56.3251 79.3312 57.4221 77.9944 57.5136ZM88.3396 57.7275L87.884 51.0731L86.7167 51.153L87.0323 55.7622L83.3147 51.3859L82.1175 51.4679L82.5731 58.1223L83.7404 58.0424L83.4146 53.2835L87.2122 57.8047L88.3396 57.7275Z" fill="white"/>
<path fill-rule="evenodd" clip-rule="evenodd" d="M34.7519 13.5716L33.98 13.6366C33.4549 14.0695 32.6558 15.8644 31.5826 19.0212C31.2182 20.5789 30.8639 22.1103 30.5196 23.6154L32.0223 23.4047C32.8331 20.2354 33.6436 17.8298 34.4539 16.1881L34.9902 16.4021C35.1454 18.246 34.9177 20.4735 34.3071 23.0844L35.9007 22.861C36.4864 20.41 36.7119 18.3852 36.5774 16.7868C35.9608 14.5928 35.3523 13.5211 34.7519 13.5716ZM24.2994 54.0092C25.2892 48.2389 26.5576 41.7387 28.1045 34.5087L29.7528 34.2679C29.6953 34.5937 29.6378 34.9233 29.5802 35.2567L29.6019 35.514L29.8592 35.4924C30.0598 35.0447 30.2546 34.603 30.4435 34.167L32.0674 33.9298C31.4106 35.4887 30.6826 37.1318 29.8834 38.8592L29.9268 39.3738C31.2215 40.3878 31.9518 41.8812 32.1179 43.854L32.2045 44.8833C32.2763 45.2228 32.4622 45.3799 32.7625 45.3546L33.2771 45.3113C35.1246 45.1558 36.9365 43.7509 38.7128 41.0967C38.7045 41.0971 38.6964 41.0976 38.6884 41.0982L38.5802 39.8116C37.0923 38.5548 36.3122 37.4975 36.24 36.6397L36.1534 35.6104C36.4387 34.8954 36.9245 34.509 37.6107 34.4512C38.8973 34.3429 40.0565 35.8002 41.0884 38.8231L41.8604 38.7581C42.8039 38.6787 44.4119 38.2842 46.6845 37.5746C47.0312 37.5887 47.2172 37.7458 47.2424 38.046L47.2641 38.3033C46.2058 42.15 45.7289 44.6952 45.8336 45.9389L45.9852 47.7401C46.0069 47.9974 46.2859 48.2331 46.8222 48.4471L47.8514 48.3605C49.6527 48.2089 52.059 44.983 55.0704 38.6828L55.3029 38.6633C55.9446 37.6248 56.7508 36.5851 57.7216 35.5443C57.8931 35.5299 58.1432 35.4224 58.4719 35.222C59.53 35.4785 60.1024 36.1213 60.1891 37.1506C60.3046 38.523 58.7976 40.1183 55.6682 41.9366L55.4542 42.4729L55.5624 43.7595C55.6342 44.099 55.8202 44.2561 56.1204 44.2308L56.8924 44.1659C59.7658 43.924 62.2226 41.2985 64.2629 36.2895C65.7626 34.6084 66.8985 33.7353 67.6705 33.6704C68.4677 33.9056 69.1114 34.3697 69.6017 35.0627L69.6883 36.092C69.6354 37.0034 67.8639 38.5346 64.3738 40.6856L64.3954 40.9429C64.482 41.9722 65.04 42.4435 66.0693 42.3569L67.3559 42.2486C68.4281 42.1583 70.5282 40.4267 73.6564 37.0537L73.9137 37.032C74.2604 37.046 74.4464 37.2031 74.4717 37.5034L74.4933 37.7607C71.3945 41.995 68.8158 44.1989 66.7572 44.3721C65.3167 44.191 63.9723 43.6131 62.7241 42.6384C60.5242 44.724 58.545 45.8408 56.7867 45.9888C55.5962 46.089 54.6096 45.522 53.8268 44.288C52.4957 46.5577 50.7974 48.3224 48.7317 49.5821C48.4888 49.7753 47.9814 49.9044 47.2094 49.9694C45.6655 50.0993 44.7211 49.1422 44.3763 47.0981L44.333 46.5835C44.2716 45.8544 44.52 43.6739 45.0782 40.0421L45.0565 39.7848L44.7992 39.8065C44.4132 39.839 43.4769 40.0042 41.9903 40.302L40.4247 40.1747C40.4328 40.2706 40.3382 40.4291 40.1408 40.6503L40.1789 41.1024C38.2375 44.721 35.7229 46.6603 32.6351 46.9202L32.3778 46.9419L32.3994 47.1992C32.3778 49.1708 32.343 51.0672 32.2952 52.8882L31.0139 53.0679C31.0451 50.8669 30.9778 48.7825 30.8122 46.8145C29.9536 45.8502 28.9803 44.55 27.8924 42.9139C27.094 46.7717 26.3979 50.3998 25.8042 53.7983L24.2994 54.0092ZM22.6606 64.8155C21.7552 71.9106 21.4653 77.3929 21.791 81.2625C22.0004 83.7499 22.7379 85.3291 24.0037 86L25.033 85.9134C28.542 85.618 30.802 78.1398 31.8128 63.4786L30.3877 63.6868C29.2865 76.991 27.3726 83.8924 24.6458 84.3911C23.9415 84.2344 23.5334 83.4913 23.4215 82.1618L23.3782 81.6472C23.0174 77.3607 23.2794 71.677 24.164 64.5959L22.6606 64.8155ZM29.672 42.505L29.607 41.733L30.1217 41.6897L30.4873 42.9547L30.5523 43.7266L30.0376 43.7699L29.672 42.505ZM37.8273 37.0244L37.7623 36.2525L38.0196 36.2308C38.5559 36.4448 38.8349 36.6805 38.8566 36.9378L38.9215 37.7098L38.6642 37.7314C38.1279 37.5174 37.8489 37.2817 37.8273 37.0244ZM65.6578 37.4678L66.4297 37.4028C67.2478 36.8588 67.6478 36.4797 67.6297 36.2652L67.5864 35.7506L67.0718 35.7939C66.2072 36.2986 65.7359 36.8565 65.6578 37.4678ZM56.8289 38.794L57.6009 38.729C57.9187 38.3999 58.3043 37.8492 58.7576 37.0768L58.2429 37.1201C57.3784 37.6248 56.9071 38.1827 56.8289 38.794Z" fill="#FFC03C"/>
</g>
<defs>
<filter id="filter0_d_365_2404" x="0.299927" y="0" width="104" height="104" filterUnits="userSpaceOnUse" color-interpolation-filters="sRGB">
<feFlood flood-opacity="0" result="BackgroundImageFix"/>
<feColorMatrix in="SourceAlpha" type="matrix" values="0 0 0 0 0 0 0 0 0 0 0 0 0 0 0 0 0 0 127 0" result="hardAlpha"/>
<feOffset dy="6"/>
<feGaussianBlur stdDeviation="6"/>
<feComposite in2="hardAlpha" operator="out"/>
<feColorMatrix type="matrix" values="0 0 0 0 0 0 0 0 0 0 0 0 0 0 0 0 0 0 0.25 0"/>
<feBlend mode="normal" in2="BackgroundImageFix" result="effect1_dropShadow_365_2404"/>
<feBlend mode="normal" in="SourceGraphic" in2="effect1_dropShadow_365_2404" result="shape"/>
</filter>
</defs>
</svg>
