<svg width="18" height="18" viewBox="0 0 18 18" fill="none" xmlns="http://www.w3.org/2000/svg">
<path d="M12.921 13.0565C13.1504 13.0508 13.3684 12.9556 13.5286 12.7913C13.6888 12.627 13.7784 12.4066 13.7784 12.1772V9.82047C13.7788 9.61477 13.7037 9.41608 13.5673 9.26208L12.9166 8.50143C12.439 7.94659 12.0178 7.34567 11.6591 6.70753L11.4543 6.34193C10.9237 5.39471 9.9227 4.80811 8.83699 4.80811H3.91193" stroke="#737679" stroke-linecap="round" stroke-linejoin="round"/>
<path d="M4.02631 13.0565H9.73777" stroke="#737679" stroke-linecap="round" stroke-linejoin="round"/>
<path d="M12.7011 8.47065H9.23204L8.21198 4.8125" stroke="#737679" stroke-linecap="round" stroke-linejoin="round"/>
<path d="M11.2151 14.5383C12.0334 14.5383 12.6968 13.8749 12.6968 13.0566C12.6968 12.2382 12.0334 11.5748 11.2151 11.5748C10.3967 11.5748 9.73334 12.2382 9.73334 13.0566C9.73334 13.8749 10.3967 14.5383 11.2151 14.5383Z" stroke="#737679" stroke-linecap="round" stroke-linejoin="round"/>
<path d="M2.24115 7.41541H4.80009" stroke="#737679" stroke-linecap="round" stroke-linejoin="round"/>
<path d="M0.5 9.99634H3.05895" stroke="#737679" stroke-linecap="round" stroke-linejoin="round"/>
<path d="M0.842957 5.51598V3.63854C0.842957 2.95753 1.11349 2.30442 1.59503 1.82287C2.07657 1.34133 2.72969 1.0708 3.4107 1.0708H14.2796C14.6166 1.0708 14.9503 1.13725 15.2616 1.26634C15.5729 1.39544 15.8556 1.58465 16.0937 1.82314C16.3318 2.06163 16.5205 2.34473 16.6491 2.65624C16.7777 2.96775 16.8435 3.30155 16.843 3.63854V14.5031C16.8435 14.8401 16.7777 15.1739 16.6491 15.4854C16.5205 15.7969 16.3318 16.08 16.0937 16.3185C15.8556 16.557 15.5729 16.7462 15.2616 16.8753C14.9503 17.0044 14.6166 17.0708 14.2796 17.0708H3.4107C2.72969 17.0708 2.07657 16.8003 1.59503 16.3187C1.11349 15.8372 0.842957 15.1841 0.842957 14.5031V13.0565" stroke="#737679" stroke-linecap="round" stroke-linejoin="round"/>
</svg>
