<svg fill="none" height="41" viewBox="0 0 64 41" width="64" xmlns="http://www.w3.org/2000/svg">
    <path clip-rule="evenodd"
        d="M4.83246 0.373169H59.1681C61.8371 0.373169 64.0003 2.97736 64.0003 6.19042V34.3071C64.0003 37.5202 61.8371 40.1244 59.1681 40.1244H4.83246C2.16347 40.1244 0.000244141 37.5202 0.000244141 34.3071V6.19042C0.000244141 2.97736 2.16347 0.373169 4.83246 0.373169Z"
        fill="#32364E" fill-rule="evenodd" />
    <path clip-rule="evenodd"
        d="M53.5992 17.1536H52.4582L53.3417 14.9714L51.5832 10.5343H52.7891L53.8942 13.554L55.008 10.5343H56.2139L53.5992 17.1536ZM49.2168 15.2477C48.8211 15.2477 48.416 15.1009 48.0476 14.8153V15.1376H46.8699V8.51831H48.0476V10.8481C48.416 10.5718 48.8211 10.4243 49.2168 10.4243C50.4507 10.4243 51.2976 11.4186 51.2976 12.836C51.2976 14.2533 50.4507 15.2477 49.2168 15.2477ZM48.9686 11.4366C48.6462 11.4366 48.3239 11.5747 48.0476 11.851V13.8209C48.3239 14.0972 48.6462 14.2354 48.9686 14.2354C49.6312 14.2354 50.0917 13.6648 50.0917 12.836C50.0917 12.0079 49.6312 11.4366 48.9686 11.4366ZM42.1003 14.8153C41.7413 15.1009 41.3362 15.2477 40.9311 15.2477C39.7065 15.2477 38.8511 14.2533 38.8511 12.836C38.8511 11.4186 39.7065 10.4243 40.9311 10.4243C41.3362 10.4243 41.7413 10.5718 42.1003 10.8481V8.51831H43.2882V15.1376H42.1003V14.8153ZM42.1003 11.851C41.8334 11.5747 41.511 11.4366 41.1887 11.4366C40.5167 11.4366 40.057 12.0079 40.057 12.836C40.057 13.6648 40.5167 14.2354 41.1887 14.2354C41.511 14.2354 41.8334 14.0972 42.1003 13.8209V11.851ZM35.0853 13.1583C35.1586 13.8576 35.7112 14.3368 36.4847 14.3368C36.9077 14.3368 37.3776 14.18 37.856 13.9037V14.8887C37.3315 15.1283 36.807 15.2477 36.2911 15.2477C34.9011 15.2477 33.9255 14.2354 33.9255 12.7993C33.9255 11.4092 34.8831 10.4243 36.199 10.4243C37.4049 10.4243 38.2244 11.3726 38.2244 12.7259C38.2244 12.8547 38.2244 13.0014 38.2057 13.1583H35.0853ZM36.153 11.3359C35.5824 11.3359 35.1407 11.7589 35.0853 12.3942H37.0919C37.0552 11.7683 36.6775 11.3359 36.153 11.3359ZM31.9828 12.0625V15.1376H30.8043V10.5343H31.9828V10.9948C32.3138 10.6264 32.7188 10.4243 33.1145 10.4243C33.2441 10.4243 33.3729 10.4336 33.5017 10.4703V11.5201C33.3729 11.4826 33.2254 11.4647 33.0872 11.4647C32.7009 11.4647 32.2864 11.6762 31.9828 12.0625ZM26.7255 13.1583C26.7996 13.8576 27.3514 14.3368 28.1249 14.3368C28.5487 14.3368 29.0178 14.18 29.497 13.9037V14.8887C28.9717 15.1283 28.4472 15.2477 27.9313 15.2477C26.5413 15.2477 25.5657 14.2354 25.5657 12.7993C25.5657 11.4092 26.5233 10.4243 27.8392 10.4243C29.0459 10.4243 29.8646 11.3726 29.8646 12.7259C29.8646 12.8547 29.8646 13.0014 29.8466 13.1583H26.7255ZM27.7932 11.3359C27.2226 11.3359 26.7809 11.7589 26.7255 12.3942H28.7329C28.6954 11.7683 28.3184 11.3359 27.7932 11.3359ZM22.61 15.1376L21.671 12.0079L20.7415 15.1376H19.6823L18.0995 10.5343H19.2773L20.2076 13.6648L21.1372 10.5343H22.2049L23.1344 13.6648L24.0648 10.5343H25.2425L23.6683 15.1376H22.61ZM15.4107 15.2477C14.0207 15.2477 13.0357 14.2448 13.0357 12.836C13.0357 11.4186 14.0207 10.4243 15.4107 10.4243C16.8008 10.4243 17.7764 11.4186 17.7764 12.836C17.7764 14.2448 16.8008 15.2477 15.4107 15.2477ZM15.4107 11.4092C14.72 11.4092 14.2416 11.9891 14.2416 12.836C14.2416 13.6828 14.72 14.2627 15.4107 14.2627C16.0921 14.2627 16.5705 13.6828 16.5705 12.836C16.5705 11.9891 16.0921 11.4092 15.4107 11.4092ZM10.2369 12.8641H9.17776V15.1376H8V8.80397H10.2369C11.5255 8.80397 12.4457 9.64143 12.4457 10.8387C12.4457 12.0352 11.5255 12.8641 10.2369 12.8641ZM10.0706 9.76163H9.17776V11.9064H10.0706C10.752 11.9064 11.2304 11.474 11.2304 10.8387C11.2304 10.194 10.752 9.76163 10.0706 9.76163ZM50.4191 28.1525H44.7606C44.8894 29.5074 45.8822 29.9062 47.0084 29.9062C48.1565 29.9062 49.0603 29.665 49.8486 29.267V31.596C49.0626 32.0307 48.0262 32.3452 46.6439 32.3452C43.8287 32.3452 41.8556 30.5821 41.8556 27.0957C41.8556 24.1517 43.529 21.8133 46.2794 21.8133C49.0252 21.8133 50.4582 24.1509 50.4582 27.1113C50.4582 27.3907 50.4324 27.9964 50.4191 28.1525ZM46.2607 24.1704C45.538 24.1704 44.7348 24.716 44.7348 26.0186H47.7233C47.7233 24.7175 46.9709 24.1704 46.2607 24.1704ZM37.271 32.3452C36.2595 32.3452 35.6414 31.9183 35.2262 31.6139L35.2199 34.8849L32.3298 35.5L32.3282 22.0061H34.8742L35.024 22.7203C35.4244 22.3464 36.1557 21.8133 37.289 21.8133C39.319 21.8133 41.2312 23.642 41.2312 27.0075C41.2312 30.6812 39.3393 32.3452 37.271 32.3452ZM36.5983 24.3741C35.9341 24.3741 35.5188 24.6168 35.2176 24.947L35.2347 29.2428C35.5149 29.5464 35.92 29.7915 36.5983 29.7915C37.6667 29.7915 38.3832 28.6278 38.3832 27.0715C38.3832 25.5589 37.6558 24.3741 36.5983 24.3741ZM28.2455 22.0061H31.1473V32.1384H28.2455V22.0061ZM28.2455 18.771L31.1473 18.1536V20.5084L28.2455 21.1249V18.771ZM25.2476 25.2693V32.1384H22.3583V22.0061H24.8574L25.0392 22.8608C25.7151 21.6167 27.0669 21.8688 27.4517 22.0069V24.6637C27.0841 24.545 25.9305 24.3718 25.2476 25.2693ZM19.1465 28.5833C19.1465 30.2871 20.9705 29.7571 21.3413 29.6088V31.962C20.9557 32.1735 20.2572 32.3452 19.312 32.3452C17.5965 32.3452 16.3095 31.0816 16.3095 29.37L16.322 20.0955L19.1442 19.4961L19.1465 22.0061H21.3421V24.4709H19.1465V28.5833ZM15.639 29.0766C15.639 31.1573 13.9828 32.3452 11.5789 32.3452C10.5823 32.3452 9.49269 32.1517 8.41796 31.6888V28.929C9.3881 29.4567 10.6244 29.8524 11.5821 29.8524C12.2267 29.8524 12.6911 29.6791 12.6911 29.1452C12.6911 27.7653 8.29621 28.2851 8.29621 25.0844C8.29621 23.0379 9.85952 21.8133 12.2041 21.8133C13.1618 21.8133 14.1194 21.9608 15.0771 22.3425V25.0648C14.1975 24.5903 13.0814 24.321 12.2018 24.321C11.5961 24.321 11.2199 24.4959 11.2199 24.9478C11.2199 26.2481 15.639 25.6299 15.639 29.0766Z"
        fill="white" fill-rule="evenodd" />
</svg>
