<svg width="22" height="17" viewBox="0 0 22 17" fill="none" xmlns="http://www.w3.org/2000/svg">
<rect y="0.261475" width="21.3333" height="14.6667" fill="#EEF3F8"/>
<rect y="0.261475" width="12" height="9.33333" fill="#41479B"/>
<rect x="12" y="0.261475" width="9.33333" height="1.33333" fill="#DC251C"/>
<rect x="12" y="2.92813" width="9.33333" height="1.33333" fill="#DC251C"/>
<rect x="12" y="5.59482" width="9.33333" height="1.33333" fill="#DC251C"/>
<rect x="12" y="8.26147" width="9.33333" height="1.33333" fill="#DC251C"/>
<rect y="10.9281" width="21.3333" height="1.33333" fill="#DC251C"/>
<rect y="13.5948" width="21.3333" height="1.33333" fill="#DC251C"/>
<rect x="1.33337" y="1.59482" width="1.33333" height="1.33333" fill="#C5D0EC"/>
<rect x="4" y="1.59482" width="1.33333" height="1.33333" fill="#C5D0EC"/>
<rect x="6.66675" y="1.59482" width="1.33333" height="1.33333" fill="#C5D0EC"/>
<rect x="9.33337" y="1.59482" width="1.33333" height="1.33333" fill="#C5D0EC"/>
<rect x="1.33337" y="4.26147" width="1.33333" height="1.33333" fill="#C5D0EC"/>
<rect x="4" y="4.26147" width="1.33333" height="1.33333" fill="#C5D0EC"/>
<rect x="6.66675" y="4.26147" width="1.33333" height="1.33333" fill="#C5D0EC"/>
<rect x="2.66675" y="5.59482" width="1.33333" height="1.33333" fill="#C5D0EC"/>
<rect x="5.33337" y="5.59482" width="1.33333" height="1.33333" fill="#C5D0EC"/>
<rect x="8" y="5.59482" width="1.33333" height="1.33333" fill="#C5D0EC"/>
<rect x="2.66675" y="2.92816" width="1.33333" height="1.33333" fill="#C5D0EC"/>
<rect x="5.33337" y="2.92816" width="1.33333" height="1.33333" fill="#C5D0EC"/>
<rect x="8" y="2.92816" width="1.33333" height="1.33333" fill="#C5D0EC"/>
<rect x="9.33337" y="4.26147" width="1.33333" height="1.33333" fill="#C5D0EC"/>
<rect x="1.33337" y="6.92816" width="1.33333" height="1.33333" fill="#C5D0EC"/>
<rect x="4" y="6.92816" width="1.33333" height="1.33333" fill="#C5D0EC"/>
<rect x="6.66675" y="6.92816" width="1.33333" height="1.33333" fill="#C5D0EC"/>
<rect x="9.33337" y="6.92816" width="1.33333" height="1.33333" fill="#C5D0EC"/>
</svg>
