<svg width="57" height="56" viewBox="0 0 57 56" fill="none" xmlns="http://www.w3.org/2000/svg">
<path d="M51.8904 14H10.4829L16.1735 38H46.4421L51.8904 14Z" fill="#F2F7FD"/>
<path d="M4.26392 7H8.34725L10.0972 14L4.26392 7ZM10.0972 14L15.9306 37.3333H46.2639L52.0973 14H10.0972Z" stroke="#005DD6" stroke-width="3" stroke-linecap="round" stroke-linejoin="round"/>
<path d="M19.926 49C21.859 49 23.426 47.433 23.426 45.5C23.426 43.567 21.859 42 19.926 42C17.993 42 16.426 43.567 16.426 45.5C16.426 47.433 17.993 49 19.926 49Z" fill="#D9E7F9" stroke="#005DD6" stroke-width="3" stroke-linecap="round" stroke-linejoin="round"/>
<path d="M42.3896 49C44.3226 49 45.8896 47.433 45.8896 45.5C45.8896 43.567 44.3226 42 42.3896 42C40.4567 42 38.8896 43.567 38.8896 45.5C38.8896 47.433 40.4567 49 42.3896 49Z" fill="#D9E7F9" stroke="#005DD6" stroke-width="3" stroke-linecap="round" stroke-linejoin="round"/>
<path d="M26.4307 25.6667H35.764" stroke="#005DD6" stroke-width="3" stroke-linecap="round" stroke-linejoin="round"/>
<path d="M31.0972 30.3333V21" stroke="#005DD6" stroke-width="3" stroke-linecap="round" stroke-linejoin="round"/>
</svg>
